# xmcd
#
# Track frame offsets: 
#        150
#        12754
#        23168
#        31960
#        45401
#        56454
#        66594
#        77014
#        86538
#        97726
#        107239
#        117308
#        128569
#        139000
#        148890
#        161309
#        171944
#        180760
#        193312
#        202490
#        211172
#        220604
#        231187
#        239005
#        248923
#
# Disc length: 3443 seconds
#
# Revision: 2
# Processed by: cddbd v1.5.2PL0 Copyright (c) Steve Scherf et al.
# Submitted via: ExactAudioCopyFreeDBPlugin 1.0
#
DISCID=5c0d7119
DTITLE=Various Artist - Phil Spector:  The Anthology, '59 - '62 [Not 
DTITLE=Now Records]
DYEAR=2013
DGENRE=Rhythm and Blues
TTITLE0=Curtis Lee - Pretty Little Angel Eyes
TTITLE1=Ben E. King - First Taste of Love
TTITLE2=The Teddy Bears - Seven Lonely Days
TTITLE3=Connie Francis - Gonna Git That Man
TTITLE4=The Crystals - Oh Yeah Maybe Baby
TTITLE5=Gene Pitney - Mr. Moon, Mr. Cupid and I
TTITLE6=Ruth Brown - Anyone But You
TTITLE7=The Top Notes - Twist and Shout
TTITLE8=Arlene Smith - Love, Love, Love
TTITLE9=Billy Storm - Honey Love
TTITLE10=The Blackwells - I
TTITLE11=The Castle Kings - You Can Get Him - Frankenstein
TTITLE12=The Creations - The Bells
TTITLE13=Jean Du Shon - Tired of Trying
TTITLE14=The Crystals - He's Sure the Boy I Love
TTITLE15=Karen Lake - I'd Like to Miss My Graduation
TTITLE16=The Teddy Bears - Don't You Worry My Little Pet
TTITLE17=Kell Osborne - Bells of St. Mary's
TTITLE18=The Paris Sisters - All Through the Night
TTITLE19=Phil Harvey (Phil Spector) - Willy Boy
TTITLE20=Ray Peterson - I Could Have Loved You So Well
TTITLE21=The Crystals - No One Ever Tells You
TTITLE22=Spector's Three - I Know Why
TTITLE23=Sammy Turner - Raincoat in the River
TTITLE24=The Teddy Bears - Long Ago and Far Away
EXTD=Not Now NOT3CD091
EXTT0=
EXTT1=
EXTT2=
EXTT3=
EXTT4=
EXTT5=
EXTT6=
EXTT7=
EXTT8=
EXTT9=
EXTT10=
EXTT11=
EXTT12=
EXTT13=
EXTT14=
EXTT15=
EXTT16=
EXTT17=
EXTT18=
EXTT19=
EXTT20=
EXTT21=
EXTT22=
EXTT23=
EXTT24=
PLAYORDER=
